<svg xmlns="http://www.w3.org/2000/svg" viewBox="0 0 511.989 511.989"><path d="M393.148 58.965c-15.25-28.516-33.516-42.968-54.297-42.968-23.921 0-48.764 19.546-73.865 58.123a347.418 347.418 0 0 0-8.992 14.641 340.552 340.552 0 0 0-8.999-14.641c-25.086-38.577-49.937-58.123-73.858-58.123-20.78 0-39.054 14.452-54.296 42.968-11.397 21.343-7.288 36.671-1.835 45.765 9.827 16.39 31.796 27.437 67.162 33.749 27.155 4.859 55.89 5.578 70.6 5.578h2.454c14.711 0 43.445-.719 70.601-5.578 35.358-6.312 57.327-17.359 67.171-33.749 5.435-9.094 9.56-24.422-1.846-45.765z" fill="#da4453"/><path d="M479.99 222.087c0-11.781-9.562-21.328-21.344-21.328H53.335c-11.781 0-21.335 9.547-21.335 21.328v252.572c0 11.781 9.554 21.327 21.335 21.327h405.312c11.781 0 21.344-9.546 21.344-21.327V222.087h-.001z" fill="#8cc153"/><path d="M511.988 240.008c0 11.781-9.562 21.328-21.343 21.328H21.336C9.555 261.335 0 251.788 0 240.007V133.339c0-11.781 9.555-21.344 21.336-21.344h469.31c11.781 0 21.343 9.562 21.343 21.344v106.669h-.001z" fill="#a0d468"/><path fill="#ed5564" d="M202.664 111.992h106.68v149.32h-106.68z"/><path fill="#79a83d" d="M32 282.428l447.99 40.733v-61.154H32z"/><path fill="#da4453" d="M202.664 261.321h106.68v234.67h-106.68z"/><path fill="#c63046" d="M202.66 297.943l106.678 9.703v-45.639H202.66z"/></svg>