<svg xmlns="http://www.w3.org/2000/svg" viewBox="0 0 512 512"><path d="M447.67 294.402c-13.633 4.02-51.705 13.042-73.918 13.042-20.828 0-44.584-7.798-53.832-12.396 0 0-25.783 26.872-26.42 26.703v22.779c0 48.232 39.252 87.472 87.5 87.472s87.5-39.239 87.5-87.472v-22.936l-.004.001c-3.172.427-20.826-27.193-20.826-27.193z" fill="#ffdecf"/><path d="M461 437.003H301.002c-20.678 0-37.5 16.822-37.5 37.5V504.5c0 4.143 3.357 7.5 7.5 7.5h219.996c4.143 0 7.5-3.357 7.5-7.5v-29.958l.002-.039c0-20.678-16.822-37.5-37.5-37.5z" fill="#5d9cec"/><path d="M461 437.003h-30.004c20.678 0 37.502 16.822 37.502 37.5l-.002.039V504.5c0 4.143-3.357 7.5-7.5 7.5h30.002c4.143 0 7.5-3.357 7.5-7.5v-29.958l.002-.039c0-20.678-16.822-37.5-37.5-37.5z" fill="#4a89dc"/><path d="M220.999 194.998a7.504 7.504 0 0 1-7.501-7.5v-12.484h-32.501a7.5 7.5 0 0 1-7.5-7.5V7.5a7.5 7.5 0 0 1 7.5-7.5h190c4.143 0 7.5 3.357 7.5 7.5v160.014c0 4.143-3.357 7.5-7.5 7.5h-98.555l-48.662 19.449a7.492 7.492 0 0 1-2.781.535z" fill="#a0d468"/><path d="M370.998 0h-30.002c4.143 0 7.5 3.357 7.5 7.5v160.014c0 4.143-3.357 7.5-7.5 7.5h30.002c4.143 0 7.5-3.357 7.5-7.5V7.5c0-4.143-3.357-7.5-7.5-7.5z" fill="#8cc152"/><path d="M211 427.002H51c-20.678 0-37.5 16.822-37.5 37.5V504.5A7.5 7.5 0 0 0 21 512h219.998a7.5 7.5 0 0 0 7.5-7.5v-39.959l.002-.039c0-20.678-16.823-37.5-37.5-37.5z" fill="#ac92ec"/><path d="M211 427.002h-30.003c20.678 0 37.5 16.822 37.5 37.5l-.002.039V504.5a7.5 7.5 0 0 1-7.5 7.5h30.003a7.5 7.5 0 0 0 7.5-7.5v-39.959l.002-.039c0-20.678-16.823-37.5-37.5-37.5z" fill="#967adc"/><path d="M91.491 282.642S45.67 302.26 43.499 301.038v43.493c0 48.232 39.253 87.472 87.5 87.472 48.248 0 87.5-39.239 87.5-87.472v-16.528L91.491 282.642z" fill="#ffdecf"/><path d="M212.742 225.165c-14.041-17.173-33.342-25.88-57.368-25.88-28.005 0-54.248 12.031-63.574 16.814l-17.576-8.368a7.494 7.494 0 0 0-6.981.28c-3.013 1.744-29.302 24.932-23.743 93.025 2.171 1.223 47.992-18.396 47.992-18.396l136.986 48.924a7.506 7.506 0 0 0 6.843-.932 7.499 7.499 0 0 0 3.18-6.131c-.001-45.01-8.667-78.433-25.759-99.336z" fill="#656d78"/><path d="M212.742 225.165c-14.041-17.173-33.342-25.88-57.368-25.88-5.292 0-10.521.431-15.585 1.16 17.428 2.869 31.842 11.133 42.95 24.72 17.082 20.892 25.748 54.29 25.757 99.265l19.981 7.136a7.506 7.506 0 0 0 6.843-.932 7.499 7.499 0 0 0 3.18-6.131c0-45.012-8.666-78.435-25.758-99.338z" fill="#515760"/><path d="M188.493 317.285c.001.025.004.049.004.074v27.171c0 43.12-31.374 79.048-72.499 86.181a87.688 87.688 0 0 0 15.001 1.291c48.248 0 87.5-39.239 87.5-87.472v-16.528l-30.006-10.717z" fill="#ffcdbe"/><path d="M351 512h-49.998a7.499 7.499 0 0 1-7.5-7.5v-19.999c0-4.143 3.357-7.5 7.5-7.5H351c4.143 0 7.5 3.357 7.5 7.5V504.5c0 4.143-3.357 7.5-7.5 7.5z" fill="#e6e9ed"/><g fill="#656d78"><path d="M308.498 62.495c0-17.921-14.58-32.5-32.5-32.5-17.922 0-32.5 14.579-32.5 32.5 0 4.143 3.358 7.5 7.5 7.5s7.5-3.357 7.5-7.5c0-9.649 7.85-17.5 17.5-17.5 9.648 0 17.5 7.851 17.5 17.5s-7.852 17.5-17.5 17.5a7.499 7.499 0 0 0-7.5 7.5v20.001c0 4.143 3.357 7.5 7.5 7.5s7.5-3.357 7.5-7.5V94.111c14.315-3.395 25-16.277 25-31.616zM275.998 119.996a7.499 7.499 0 0 0-7.5 7.5v10c0 4.143 3.357 7.5 7.5 7.5s7.5-3.357 7.5-7.5v-10a7.5 7.5 0 0 0-7.5-7.5z"/></g><path d="M460.498 250.788c-7.043-8.592-15.773-11.867-21.998-13.092v-33.194c0-4.143-3.357-7.5-7.5-7.5-2.846 0-5.762-.016-8.73-.031-3.103-.017-6.264-.033-9.461-.033-36.182 0-76.803 2.289-100.932 29.622-17.373 19.679-23.393 55.067-18.377 95.191.637.169 26.42-26.703 26.42-26.703 9.248 4.599 33.004 12.396 53.832 12.396 22.213 0 60.285-9.022 73.918-13.042 0 0 17.654 27.619 20.826 27.192 5.918-29.588 3.203-57.142-7.998-70.806z" fill="#965353"/><g fill="#864b4c"><path d="M460.498 250.788c-7.043-8.592-15.773-11.867-21.998-13.092v-33.194c0-4.143-3.357-7.5-7.5-7.5-2.846 0-5.762-.016-8.73-.031-3.103-.017-6.264-.033-9.461-.033-3.68 0-7.406.026-11.156.098a7.496 7.496 0 0 1 6.844 7.467v33.194c0 12.973 14.955 9.215 21.998 17.807 7.881 9.612 8.57 22.158 8 41.39 2.395-.633 7.469-1.986 9.176-2.49 0 0 17.654 27.619 20.826 27.192 5.917-29.59 3.202-57.144-7.999-70.808z"/><path d="M447.672 294.405l-.002-.003c-.305.09-.162.051.002.003z"/></g><path d="M438.492 321.595c.002 0 .002-10.393.002-24.702-.258.066-.508.131-.771.197.092 14.303.184 24.678.273 24.652.168-.044.334-.092.496-.147z" fill="#ffdecf"/><path d="M447.67 294.402c-2.379.701-5.518 1.558-9.172 2.49h-.002v47.638c0 43.12-31.373 79.048-72.498 86.181l.006.001c2.361.409 4.756.72 7.176.936l.414.037c1.127.096 2.258.169 3.395.221.172.008.346.014.518.02 1.158.047 2.322.076 3.494.076 48.248 0 87.5-39.239 87.5-87.472v-22.936l-.004.001c-3.173.427-20.827-27.193-20.827-27.193z" fill="#ffcdbe"/><path d="M381 432.002c-21.99 0-42.109-8.154-57.498-21.593v24.093l.002.053c.002.147.014.295.023.441.006.104.008.209.02.311.012.107.031.211.047.316a7.286 7.286 0 0 0 1.475 3.453c.051.066.098.136.15.2.068.083.145.16.219.24.094.104.184.211.283.309.061.06.125.113.188.17.123.114.246.229.377.334.012.009.021.02.033.029l25.006 19.996c.066.053.141.088.207.139a8.177 8.177 0 0 0 1.064.668c.215.109.436.203.658.291.148.059.295.123.447.172.246.08.5.137.754.191.127.027.252.065.379.086.387.062.779.098 1.176.098.262 0 .523-.018.787-.045.045-.006.092-.015.139-.021.205-.025.41-.059.617-.102.084-.018.166-.04.25-.061a7.102 7.102 0 0 0 .796-.243c.064-.023.131-.041.195-.067l21.865-8.746 17.002 8.492c.115.058.234.099.35.15.137.059.27.123.406.174.188.069.377.122.566.175.09.025.18.059.271.08.266.064.531.111.799.146.022.002.043.008.065.012.297.035.594.055.889.055.352 0 .701-.026 1.049-.075.15-.022.301-.064.451-.095.191-.039.385-.072.572-.125.152-.045.301-.107.451-.16.188-.067.373-.131.555-.211.131-.061.26-.134.389-.201.195-.102.389-.205.576-.324.039-.026.084-.043.123-.07l29.988-19.996.012-.008a7.527 7.527 0 0 0 1.018-.826c.037-.035.078-.067.115-.104a7.58 7.58 0 0 0 .391-.432c.031-.036.066-.07.096-.107.113-.136.215-.278.316-.421.039-.057.084-.109.121-.167.082-.123.156-.25.23-.377.051-.086.103-.169.15-.256.055-.102.102-.208.15-.311.057-.118.117-.235.166-.356.035-.081.061-.164.09-.246.057-.146.113-.293.158-.445.021-.07.037-.143.057-.215.043-.162.088-.323.121-.489.027-.13.041-.261.06-.392.016-.108.037-.215.049-.325a8.2 8.2 0 0 0 .039-.753v-.006l.012-24.109c-15.391 13.447-35.516 21.606-57.512 21.606z" fill="#e6e9ed"/><path d="M131 432.002a87.006 87.006 0 0 1-47.5-14.045V434.503c.001 26.19 21.309 47.498 47.5 47.498 26.188 0 47.495-21.304 47.5-47.49v-.005l.009-16.555A87.008 87.008 0 0 1 131 432.002z" fill="#ffdecf"/></svg>