<svg xmlns="http://www.w3.org/2000/svg" width="64" height="64"><path d="M32 0C14.327 0 0 14.327 0 32c0 17.674 14.327 32 32 32s32-14.326 32-32C64 14.327 49.673 0 32 0zm0 62.001c-16.568 0-30-13.433-30-30C2 15.432 15.432 2 32 2c16.568 0 30 13.432 30 30.001 0 16.567-13.432 30-30 30z"/><path d="M48.109 30.328l-12-7.978a2.011 2.011 0 0 0-2.053-.099A1.996 1.996 0 0 0 33 24.011V31h-5v-2h-2v6h2v-2h5v6.965a1.998 1.998 0 0 0 3.11 1.659l12-7.978a1.991 1.991 0 0 0-.001-3.318zM45.8 33.404l-9.389 5.775c-.504.337-1.411.352-1.411.352V26v-1.656s.907-.046 1.411.287l9.389 6.184c.457.303.731.687.731 1.232s-.274 1.055-.731 1.357z"/><path d="M29 26v-2h-9a2 2 0 0 0-2 2v12a2 2 0 0 0 2 2h9v-2h-9V26h9z"/></svg>