<svg xmlns="http://www.w3.org/2000/svg" width="64" height="64"><path d="M32 0C14.327 0 0 14.327 0 32s14.327 32 32 32 32-14.327 32-32S49.673 0 32 0zm0 62C15.432 62 2 48.568 2 32.001 2 15.432 15.432 2 32 2c16.568 0 30 13.432 30 30.001C62 48.568 48.568 62 32 62z"/><path d="M45 22a4 4 0 1 0 0 8 4 4 0 0 0 0-8zm0 6a2 2 0 1 1 .001-4.001A2 2 0 0 1 45 28z"/><path d="M42.645 27.838l-4.643 7.295-4.447-2.965-.246.37-.141-.093-3.104 4.656-5.482-3.916-.248.348-.152-.106-7 10 1.639 1.146 6.088-8.696 5.512 3.938.259-.362.154.104 3.139-4.707 4.476 2.983.257-.385.143.09 5.483-8.619a2.985 2.985 0 0 1-1.687-1.081z"/></svg>