<svg xmlns="http://www.w3.org/2000/svg" viewBox="0 0 511.999 511.999"><path d="M85.636 67.25c-26.754 0-48.522 21.767-48.522 48.522 0 26.756 21.767 48.522 48.522 48.522 26.756 0 48.523-21.767 48.523-48.522S112.392 67.25 85.636 67.25zm.001 81.993c-18.456 0-33.472-15.014-33.472-33.471 0-18.457 15.015-33.471 33.472-33.471s33.472 15.015 33.472 33.471c0 18.456-15.016 33.471-33.472 33.471zM85.637 30.135a7.524 7.524 0 0 0-7.525 7.525v15.138c0 4.156 3.368 7.525 7.525 7.525s7.525-3.369 7.525-7.525V37.66a7.524 7.524 0 0 0-7.525-7.525zM146.193 55.217a7.528 7.528 0 0 0-10.644 0l-10.704 10.704a7.525 7.525 0 0 0 5.322 12.846 7.507 7.507 0 0 0 5.322-2.203l10.704-10.704a7.526 7.526 0 0 0 0-10.643zM163.749 108.247h-15.137a7.524 7.524 0 0 0-7.525 7.525 7.524 7.524 0 0 0 7.525 7.525h15.137a7.524 7.524 0 0 0 7.525-7.525 7.524 7.524 0 0 0-7.525-7.525zM146.193 165.684l-10.704-10.703a7.527 7.527 0 0 0-10.644 10.642l10.704 10.704c1.47 1.469 3.396 2.204 5.322 2.204s3.852-.734 5.322-2.204a7.526 7.526 0 0 0 0-10.643zM85.637 171.222a7.524 7.524 0 0 0-7.525 7.525v15.138c0 4.156 3.368 7.525 7.525 7.525s7.525-3.369 7.525-7.525v-15.138a7.524 7.524 0 0 0-7.525-7.525zM46.43 154.981a7.526 7.526 0 0 0-10.643 0l-10.704 10.703a7.525 7.525 0 0 0 5.321 12.847 7.504 7.504 0 0 0 5.322-2.204l10.704-10.704a7.526 7.526 0 0 0 0-10.642zM22.662 108.247H7.525A7.524 7.524 0 0 0 0 115.772a7.524 7.524 0 0 0 7.525 7.525h15.137a7.524 7.524 0 0 0 7.525-7.525 7.524 7.524 0 0 0-7.525-7.525zM46.43 65.921L35.725 55.217A7.526 7.526 0 1 0 25.082 65.86l10.704 10.704a7.505 7.505 0 0 0 5.322 2.203 7.526 7.526 0 0 0 5.322-12.846zM508.356 457.18c-13.116-8.896-28.324-12.925-43.34-12.113-13.861-19.093-40.008-35.461-76.032-47.525-22.361-7.488-47.316-12.893-73.849-16.102l53.915-135.271c8.135 5.875 15.235 12.853 21.038 20.747 1.918 2.61 4.877 4.087 8.141 3.292 17.807-3.229 36.69-1.16 54.628 5.989 18.073 7.203 33.291 18.807 44.008 33.557a7.524 7.524 0 0 0 13.537-3.359c.284-1.991 6.799-49.36-8.723-100.965a7.523 7.523 0 1 0-14.411 4.334c9.06 30.124 10.049 59.251 9.493 77.019-10.74-10.394-23.739-18.752-38.332-24.568-16.59-6.612-33.947-9.423-50.843-8.3.128-.389.244-.769.37-1.156 5.88-17.964 10.265-36.477 12.422-55.27 1.973-17.197 2.157-34.568-.008-51.756-1.254-9.954-3.388-19.799-6.45-29.355-.022-.069-.044-.143-.067-.212 27.002 14.629 47.758 36.185 61.846 64.284a7.525 7.525 0 1 0 13.453-6.746c-18.674-37.246-47.974-64.037-87.111-79.638-53.828-21.451-109.852-14.395-162.006 20.406-38.932 25.977-61.729 57.839-62.681 59.182a7.523 7.523 0 0 0 7.517 11.746c17.927-3.333 36.955-1.288 55.027 5.915 17.81 7.099 32.849 18.471 43.541 32.917 2.08 2.81 5.114 4.538 8.675 3.48 9.557-1.694 19.418-1.862 29.274-.544l-60.123 150.855c-1.517-.013-3.029-.04-4.551-.04-34.684 0-67.831 3.455-98.52 10.269a7.524 7.524 0 0 0-5.714 8.978 7.52 7.52 0 0 0 8.977 5.715c29.202-6.484 62.142-9.911 95.257-9.911 15.696 0 31.402.746 47.022 2.298.056.005.111.004.168.008 29.047 2.88 56.27 8.423 80.299 16.471 28.686 9.607 50.833 22.267 63.831 36.298a71.075 71.075 0 0 0-18.818 9.069c-18.905 12.821-43.336 12.821-62.242 0-24.039-16.303-55.103-16.302-79.139 0-18.905 12.821-43.336 12.821-62.242 0-24.038-16.303-55.102-16.302-79.139 0-18.905 12.821-43.336 12.821-62.242 0a71.024 71.024 0 0 0-18.817-9.069c12.981-14.011 35.088-26.657 63.717-36.259a7.526 7.526 0 0 0-4.785-14.27c-35.961 12.06-62.068 28.415-75.913 47.485-15.017-.812-30.224 3.219-43.34 12.113A7.525 7.525 0 0 0 3.07 467.63a7.524 7.524 0 0 0 10.452 2.005c11.17-7.575 24.27-10.672 37.019-9.295.458.099.92.162 1.384.173 8.348 1.116 16.51 4.151 23.841 9.123 24.036 16.301 55.099 16.303 79.138 0 18.907-12.822 43.339-12.821 62.243 0 24.037 16.301 55.1 16.303 79.138 0 18.906-12.822 43.338-12.821 62.243 0 12.019 8.151 25.794 12.227 39.57 12.227 13.775 0 27.55-4.076 39.57-12.227 7.314-4.96 15.456-7.993 23.785-9.115a7.439 7.439 0 0 0 1.472-.184c12.739-1.368 25.826 1.729 36.986 9.298a7.524 7.524 0 1 0 8.445-12.455zM302.325 211.403c.08-.17.163-.338.244-.508 7.01-14.674 15.187-28.858 24.726-42.04 2.332-3.222 1.664-8.085-1.684-10.508-3.275-2.371-8.144-1.584-10.509 1.685-7.659 10.583-14.464 21.784-20.571 33.329-2.206 4.172-4.447 8.394-6.339 12.721l-.101.21c-11.496-12.441-26.025-22.34-42.62-28.952-14.597-5.818-29.789-8.691-44.735-8.535 10.047-11.299 26.551-27.793 48.035-42.063 21.302-14.15 43.29-23.387 65.35-27.454 21.343-3.934 42.879-3.011 64.249 2.73l-.264.146c-11.561 6.345-22.28 14.174-32.012 23.063-3.796 3.467-7.499 7.031-11.047 10.75a7.526 7.526 0 0 0 10.893 10.387c9.646-10.118 20.538-19.371 32.428-26.852 5.48-3.449 11.2-6.565 17.173-9.077 1.569 3.559 3.61 8.828 5.527 15.729 9.074 32.689 6.622 67.965-1.332 100.608a283.609 283.609 0 0 1-5.93 20.847l-.071.216c-10.24-10.834-22.815-19.68-37.052-26.047l-.585-.26c-16.838-7.432-35.368-11.141-53.773-10.125zm-2.749 168.417c-3.489-.302-7.002-.56-10.535-.788a421.204 421.204 0 0 0-11.728-.624l59.02-148.079a105.644 105.644 0 0 1 10.531 3.633c.559.227 9.182 4.177 9.166 4.217L299.576 379.82z"/></svg>