<svg xmlns="http://www.w3.org/2000/svg" viewBox="0 0 59.191 59.191"><path d="M47.739 18.011c-4.306-3.388-10.405-2.45-15.237-1.254-.777.193-1.574.286-2.373.321a20.025 20.025 0 0 0-.478-1.913l3.734-.556a10.855 10.855 0 0 0 9.188-9.188l.551-3.701a.989.989 0 0 0 .059-.399L43.379 0l-5.421.807a10.856 10.856 0 0 0-9.188 9.188l-.325 2.183c-1.108-2.127-2.702-3.988-4.901-5.161a1 1 0 1 0-.942 1.765c3.053 1.628 4.737 4.921 5.473 8.231a11.87 11.87 0 0 1-1.387-.255c-4.832-1.196-10.933-2.135-15.237 1.254-3.856 3.035-5.708 9.042-5.66 18.364.035 6.887 4.001 14.832 9.645 19.321 3.727 2.965 7.735 4.076 11.584 3.207a11.77 11.77 0 0 1 5.149 0c.852.192 1.71.287 2.571.287 3.036 0 6.109-1.184 9.013-3.494 5.644-4.49 9.609-12.435 9.645-19.321.049-9.323-1.803-15.33-5.659-18.365zM33.09 12.63l-.877.131 8.511-8.511-.131.877a8.86 8.86 0 0 1-7.503 7.503zm5.163-9.844l1.301-.194-8.999 8.999.194-1.302a8.864 8.864 0 0 1 7.504-7.503zm4.256 51.346c-2.256 1.796-5.802 3.746-9.899 2.82-.986-.222-2-.333-3.015-.333-1.014 0-2.028.111-3.014.333-4.089.924-7.643-1.024-9.899-2.82-5.119-4.073-8.858-11.544-8.89-17.767-.045-8.665 1.557-14.154 4.896-16.782 2.828-2.225 7-2.497 13.521-.884.724.179 1.463.278 2.206.34.057.512.095 1.017.111 1.507a1 1 0 0 0 .998.968h.032a1 1 0 0 0 .968-1.031c-.015-.463-.051-.94-.1-1.422.861-.05 1.719-.154 2.558-.361 6.521-1.612 10.692-1.34 13.521.884 3.34 2.628 4.941 8.118 4.896 16.783-.031 6.22-3.771 13.692-8.89 17.765z"/><path d="M19.791 20.188c-4.963 0-9 4.486-9 10a1 1 0 1 0 2 0c0-4.411 3.141-8 7-8a1 1 0 1 0 0-2zM32.47 20.481c-.812.812-1.89 1.259-3.035 1.259s-2.225-.447-3.036-1.259a.999.999 0 1 0-1.414 1.414c1.189 1.189 2.771 1.845 4.45 1.845s3.26-.655 4.449-1.845a.999.999 0 1 0-1.414-1.414z"/></svg>